<svg width="40" height="40" viewBox="0 0 40 40" fill="none" xmlns="http://www.w3.org/2000/svg">
<circle cx="20" cy="20" r="19" stroke="#073B7B" stroke-width="2"/>
<path d="M16.9712 22.7301C17.6711 22.7301 18.3423 22.4425 18.8372 21.9305C19.3321 21.4186 19.6101 20.7242 19.6101 20.0002C19.6101 18.4933 19.0824 17.8163 18.5546 16.7243C17.423 14.3843 18.3181 12.2975 20.6657 10.1726C21.1935 12.9025 22.7768 15.5232 24.8879 17.2703C26.999 19.0174 28.0546 21.0921 28.0546 23.2761C28.0546 24.2798 27.8635 25.2738 27.4921 26.2012C27.1208 27.1285 26.5765 27.9712 25.8904 28.681C25.2043 29.3907 24.3898 29.9538 23.4933 30.3379C22.5968 30.722 21.636 30.9197 20.6657 30.9197C19.6954 30.9197 18.7345 30.722 17.8381 30.3379C16.9416 29.9538 16.1271 29.3907 15.4409 28.681C14.7548 27.9712 14.2106 27.1285 13.8392 26.2012C13.4679 25.2738 13.2768 24.2798 13.2768 23.2761C13.2768 22.017 13.7339 20.7711 14.3324 20.0002C14.3324 20.7242 14.6104 21.4186 15.1053 21.9305C15.6002 22.4425 16.2714 22.7301 16.9712 22.7301Z" stroke="#073B7B" stroke-width="2" stroke-linecap="round" stroke-linejoin="round"/>
</svg>
