<svg width="52" height="50" viewBox="0 0 52 50" fill="none" xmlns="http://www.w3.org/2000/svg">
<path d="M25.7646 1C39.4109 1 50.5303 11.7146 50.5303 25C50.5303 38.2854 39.4109 49 25.7646 49C12.1186 48.9998 1 38.2853 1 25C1 11.7147 12.1186 1.00018 25.7646 1Z" fill="#073B7B" stroke="#073B7B" stroke-width="2"/>
<path d="M25.2578 13.1475C25.5126 12.9914 25.8263 12.9558 26.1123 13.0566C26.4393 13.172 26.6833 13.4492 26.7568 13.7881C27.3276 16.4164 29.0584 18.986 31.3896 20.7041C34.0738 22.682 35.5596 25.1479 35.5596 27.8643C35.5595 29.0695 35.3021 30.2608 34.8037 31.3691C34.3054 32.4773 33.5775 33.4787 32.666 34.3184C31.7546 35.1579 30.6765 35.8192 29.4961 36.2695C28.3159 36.7198 27.0535 36.9511 25.7803 36.9512C24.5069 36.9512 23.2438 36.7199 22.0635 36.2695C20.8833 35.8192 19.8058 35.1576 18.8945 34.3184C17.983 33.4787 17.2542 32.4773 16.7559 31.3691C16.2575 30.2608 16 29.0695 16 27.8643C16 26.2894 16.6318 24.7381 17.501 23.7412C17.775 23.427 18.215 23.3156 18.6055 23.4619C18.9955 23.6083 19.2537 23.9809 19.2539 24.3975C19.2539 24.8705 19.4579 25.3434 19.8506 25.7051C20.2459 26.069 20.7982 26.2861 21.3896 26.2861C21.9813 26.2861 22.5343 26.0692 22.9297 25.7051C23.3223 25.3434 23.5254 24.8705 23.5254 24.3975C23.5253 23.4442 23.2824 22.9653 22.8652 22.2412L22.3926 21.4092C21.5903 19.9319 21.4823 18.4537 22.0439 17.0166C22.5826 15.6385 23.7005 14.3919 25.1523 13.2217L25.2578 13.1475Z" fill="white" stroke="white" stroke-width="2" stroke-linecap="round" stroke-linejoin="round"/>
</svg>
